<mxfile host="Electron" agent="Mozilla/5.0 (Macintosh; Intel Mac OS X 10_15_7) AppleWebKit/537.36 (KHTML, like Gecko) draw.io/25.0.2 Chrome/128.0.6613.186 Electron/32.2.5 Safari/537.36" version="25.0.2">
  <diagram name="as-is" id="-FQbQIRzEgXYEJ3rUFKh">
    <mxGraphModel dx="1590" dy="1212" grid="1" gridSize="10" guides="1" tooltips="1" connect="1" arrows="1" fold="1" page="1" pageScale="1" pageWidth="827" pageHeight="1169" math="0" shadow="0">
      <root>
        <mxCell id="0" />
        <mxCell id="1" parent="0" />
        <mxCell id="Zcm5tQwCMB2YyKj0-IPv-7" value="&lt;div style=&quot;font-size: 1px&quot;&gt;&lt;font style=&quot;font-size:22.58px;font-family:Arial;color:#000000;direction:ltr;letter-spacing:0px;line-height:120%;opacity:1&quot;&gt;ЦОД 1&lt;br&gt;&lt;/font&gt;&lt;/div&gt;" style="verticalAlign=bottom;align=center;overflow=width;vsdxID=5;fillColor=#e3ebff;gradientColor=none;shape=stencil(vVNBDsIgEHwNRwxCjHqu+g9iaUtEaBa09fdSwdpi9dBDb8vOwOwsGcQyW/FaIEqsA3MRjcxdhdgBUSp1JUA6XyF2RCwrDIgSzE3n4VzzjtlVV3PvXmjDPdLdoOQRTrvtavNqnAKXw9mDELkBIhDJaxrJZIy/YRLfbjFvpcVgHHfS6JGu4lAK7GVwoXg5gmwjRP3VjoMpqQcm9tPKs0z0Y6crWcBHqt0PN8tJspXFfmNKdpaBH8tYwML/VPjiE6dCKhXSOMTT+PlWiC47PgE=);strokeColor=none;spacingTop=-3;spacingBottom=-3;spacingLeft=-3;spacingRight=-3;points=[];labelBackgroundColor=none;rounded=0;html=1;whiteSpace=wrap;container=0;" parent="1" vertex="1">
          <mxGeometry x="76" y="360" width="720" height="530" as="geometry" />
        </mxCell>
        <mxCell id="Zcm5tQwCMB2YyKj0-IPv-33" style="edgeStyle=orthogonalEdgeStyle;rounded=0;orthogonalLoop=1;jettySize=auto;html=1;exitX=0.509;exitY=1.08;exitDx=0;exitDy=0;exitPerimeter=0;" parent="1" source="8OyU6pPh-ruzY7AUVKWd-91" target="Zcm5tQwCMB2YyKj0-IPv-27" edge="1">
          <mxGeometry relative="1" as="geometry">
            <Array as="points">
              <mxPoint x="571" y="614" />
              <mxPoint x="571" y="630" />
              <mxPoint x="231" y="630" />
            </Array>
          </mxGeometry>
        </mxCell>
        <mxCell id="Zcm5tQwCMB2YyKj0-IPv-34" value="read/write" style="edgeLabel;html=1;align=center;verticalAlign=middle;resizable=0;points=[];container=0;" parent="Zcm5tQwCMB2YyKj0-IPv-33" vertex="1" connectable="0">
          <mxGeometry x="-0.0566" y="2" relative="1" as="geometry">
            <mxPoint as="offset" />
          </mxGeometry>
        </mxCell>
        <mxCell id="Zcm5tQwCMB2YyKj0-IPv-42" style="edgeStyle=orthogonalEdgeStyle;rounded=0;orthogonalLoop=1;jettySize=auto;html=1;exitX=0.456;exitY=1.013;exitDx=0;exitDy=0;exitPerimeter=0;" parent="1" source="Zcm5tQwCMB2YyKj0-IPv-39" target="Zcm5tQwCMB2YyKj0-IPv-15" edge="1">
          <mxGeometry relative="1" as="geometry">
            <Array as="points">
              <mxPoint x="865" y="360" />
              <mxPoint x="865" y="360" />
            </Array>
          </mxGeometry>
        </mxCell>
        <mxCell id="Zcm5tQwCMB2YyKj0-IPv-14" value="" style="shape=image;verticalLabelPosition=bottom;verticalAlign=top;imageAspect=0;aspect=fixed;image=data:image/svg+xml,PHN2ZyB4bWxucz0iaHR0cDovL3d3dy53My5vcmcvMjAwMC9zdmciIHdpZHRoPSIzMiIgaGVpZ2h0PSIzMiIgdmlld0JveD0iMCAwIDMyIDMyIiBmaWxsPSJub25lIj4mI3hhOzxwYXRoIGQ9Ik0wIDE2QzAgNy4xNjM0NCA3LjE2MzQ0IDAgMTYgMFYwQzI0LjgzNjYgMCAzMiA3LjE2MzQ0IDMyIDE2VjE2QzMyIDI0LjgzNjYgMjQuODM2NiAzMiAxNiAzMlYzMkM3LjE2MzQ0IDMyIDAgMjQuODM2NiAwIDE2VjE2WiIgZmlsbD0iIzUyODJGRiIvPiYjeGE7PHBhdGggZD0iTTExLjk5NSAyNEw3LjAwMDk4IDE3LjczOEw4Ljc4MTk4IDkuOTI3TDE2IDYuNDUzTDIzLjIxOCA5LjkyOEwyNC45OTkgMTcuNzM5TDIwLjAwNSAyNEgxMS45OTVaTTIwIDEzLjE5NkwxNS45OTkgMTAuODk5TDEyIDEzLjE5NlYxOC4xTDE2IDIwLjQwMUwyMCAxOC4xVjEzLjE5NlpNMTguNzggMTMuODk2SDE4Ljc4N0wxNiAxNS40OTlMMTMuMjE0IDEzLjg5NUgxMy4yMTlMMTUuOTk5IDEyLjI5OUwxOC43OCAxMy44OTZaIiBmaWxsPSJ3aGl0ZSIvPiYjeGE7PC9zdmc+;container=0;" parent="1" vertex="1">
          <mxGeometry x="688.63" y="420" width="28.571428571428573" height="28.571428571428573" as="geometry" />
        </mxCell>
        <mxCell id="Zcm5tQwCMB2YyKj0-IPv-16" value="&lt;div style=&quot;font-size: 1px&quot;&gt;&lt;font style=&quot;font-size:22.58px;font-family:Arial;color:#000000;direction:ltr;letter-spacing:0px;line-height:120%;opacity:1&quot;&gt;InsureTech&lt;/font&gt;&lt;/div&gt;&lt;div style=&quot;font-size: 1px&quot;&gt;&lt;font style=&quot;font-size:22.58px;font-family:Arial;color:#000000;direction:ltr;letter-spacing:0px;line-height:120%;opacity:1&quot;&gt;namespace&lt;/font&gt;&lt;/div&gt;" style="verticalAlign=bottom;align=center;overflow=width;vsdxID=6;fillColor=none;gradientColor=none;strokeColor=none;spacingTop=-3;spacingBottom=-3;spacingLeft=-3;spacingRight=-3;points=[];labelBackgroundColor=none;rounded=0;html=1;whiteSpace=wrap;container=0;" parent="1" vertex="1">
          <mxGeometry x="623.63" y="450" width="130" height="54" as="geometry" />
        </mxCell>
        <mxCell id="Zcm5tQwCMB2YyKj0-IPv-27" style="vsdxID=5;fillColor=none;gradientColor=none;shape=stencil(vVPLEoIgFP0aljgEVuPa6j+YRGUica6U9vdhUKk4LWzG3X0cOPdcOIilTclrgShpDOiLaGVmSsQOiFJZlQKksRFiR8TSXIMoQN+qzOU175F9dNX3/obOnSP9CUoeLktIFL8KJ4flcLZN8NhtRJiDwxsf7VwhQHjAhniCDvNONhi04UbqakSuOBQCWy6cK16MWk0rRB2U/XRKVgMlSRwl+1nyhWI+s0+Xs4KYgNvPtlBKuJvVniX4En+9yfxWVpDx2yc2+Bosl0o5fw77U0PakjMzOz4B);strokeColor=#ff5958;spacingTop=-3;spacingBottom=-3;spacingLeft=-3;spacingRight=-3;points=[];labelBackgroundColor=none;rounded=0;html=1;whiteSpace=wrap;container=0;" parent="1" vertex="1">
          <mxGeometry x="166" y="723.11" width="130" height="105.5" as="geometry" />
        </mxCell>
        <mxCell id="Zcm5tQwCMB2YyKj0-IPv-28" value="&lt;div style=&quot;font-size: 1px&quot;&gt;&lt;font style=&quot;font-size:22.58px;font-family:Arial;color:#000000;direction:ltr;letter-spacing:0px;line-height:120%;opacity:1&quot;&gt;PosrgreSQL&lt;br&gt;&lt;/font&gt;&lt;/div&gt;&lt;div style=&quot;font-size: 1px&quot;&gt;&lt;font style=&quot;font-size:22.58px;font-family:Arial;color:#000000;direction:ltr;letter-spacing:0px;line-height:120%;opacity:1&quot;&gt;(replica)&lt;/font&gt;&lt;/div&gt;" style="verticalAlign=bottom;align=center;overflow=width;vsdxID=6;fillColor=none;gradientColor=none;strokeColor=none;spacingTop=-3;spacingBottom=-3;spacingLeft=-3;spacingRight=-3;points=[];labelBackgroundColor=none;rounded=0;html=1;whiteSpace=wrap;container=0;" parent="1" vertex="1">
          <mxGeometry x="166" y="768.11" width="130" height="53.21" as="geometry" />
        </mxCell>
        <mxCell id="Zcm5tQwCMB2YyKj0-IPv-30" value="" style="shape=image;verticalLabelPosition=bottom;verticalAlign=top;imageAspect=0;aspect=fixed;image=data:image/svg+xml,PHN2ZyB4bWxucz0iaHR0cDovL3d3dy53My5vcmcvMjAwMC9zdmciIHdpZHRoPSIzMiIgaGVpZ2h0PSIzMiIgdmlld0JveD0iMCAwIDMyIDMyIiBmaWxsPSJub25lIj4mI3hhOzxwYXRoIGQ9Ik0wIDE2QzAgNy4xNjM0NCA3LjE2MzQ0IDAgMTYgMFYwQzI0LjgzNjYgMCAzMiA3LjE2MzQ0IDMyIDE2VjE2QzMyIDI0LjgzNjYgMjQuODM2NiAzMiAxNiAzMlYzMkM3LjE2MzQ0IDMyIDAgMjQuODM2NiAwIDE2VjE2WiIgZmlsbD0iIzUyODJGRiIvPiYjeGE7PHBhdGggZmlsbC1ydWxlPSJldmVub2RkIiBjbGlwLXJ1bGU9ImV2ZW5vZGQiIGQ9Ik0xMyA4SDE4QzIxLjMgOCAyNCAxMC43IDI0IDE0VjI0SDIwVjIwSDIyVjE5SDE4LjZDMTUuNSAxOSAxMyAxNi41IDEzIDEzLjRWOFpNMTkgMTdIMjFWMTVIMTlWMTdaTTEyIDkuMDk5OThWMTMuNEMxMiAxNi44IDE0LjYgMTkuNyAxOCAyMC4xVjIwLjZDMTggMjIgMTUuOCAyMy4xIDEzIDIzLjFDMTAuMiAyMy4xIDggMjIgOCAyMC42VjExLjZDOCAxMC4zIDkuNyA5LjI5OTk4IDEyIDkuMDk5OThaIiBmaWxsPSJ3aGl0ZSIvPiYjeGE7PC9zdmc+;container=0;" parent="1" vertex="1">
          <mxGeometry x="210.5" y="727.11" width="36.26923076923077" height="36.26923076923077" as="geometry" />
        </mxCell>
        <mxCell id="Zcm5tQwCMB2YyKj0-IPv-38" value="" style="aspect=fixed;sketch=0;html=1;dashed=0;whitespace=wrap;verticalLabelPosition=bottom;verticalAlign=top;fillColor=#2875E2;strokeColor=#ffffff;points=[[0.005,0.63,0],[0.1,0.2,0],[0.9,0.2,0],[0.5,0,0],[0.995,0.63,0],[0.72,0.99,0],[0.5,1,0],[0.28,0.99,0]];shape=mxgraph.kubernetes.icon2;prIcon=group;container=0;" parent="1" vertex="1">
          <mxGeometry x="880" y="170" width="50" height="48" as="geometry" />
        </mxCell>
        <mxCell id="Zcm5tQwCMB2YyKj0-IPv-39" style="vsdxID=5;fillColor=none;gradientColor=none;shape=stencil(vVPLEoIgFP0aljgEVuPa6j+YRGUica6U9vdhUKk4LWzG3X0cOPdcOIilTclrgShpDOiLaGVmSsQOiFJZlQKksRFiR8TSXIMoQN+qzOU175F9dNX3/obOnSP9CUoeLktIFL8KJ4flcLZN8NhtRJiDwxsf7VwhQHjAhniCDvNONhi04UbqakSuOBQCWy6cK16MWk0rRB2U/XRKVgMlSRwl+1nyhWI+s0+Xs4KYgNvPtlBKuJvVniX4En+9yfxWVpDx2yc2+Bosl0o5fw77U0PakjMzOz4B);strokeColor=#ff5958;spacingTop=-3;spacingBottom=-3;spacingLeft=-3;spacingRight=-3;points=[];labelBackgroundColor=none;rounded=0;html=1;whiteSpace=wrap;container=0;" parent="1" vertex="1">
          <mxGeometry x="796" y="160" width="152" height="130" as="geometry" />
        </mxCell>
        <mxCell id="Zcm5tQwCMB2YyKj0-IPv-40" value="&lt;div style=&quot;font-size: 1px&quot;&gt;&lt;font style=&quot;font-size:22.58px;font-family:Arial;color:#000000;direction:ltr;letter-spacing:0px;line-height:120%;opacity:1&quot;&gt;Браузер&amp;nbsp;&lt;/font&gt;&lt;/div&gt;&lt;div style=&quot;font-size: 1px&quot;&gt;&lt;font style=&quot;font-size:22.58px;font-family:Arial;color:#000000;direction:ltr;letter-spacing:0px;line-height:120%;opacity:1&quot;&gt;пользователя&lt;/font&gt;&lt;/div&gt;" style="verticalAlign=bottom;align=center;overflow=width;vsdxID=6;fillColor=none;gradientColor=none;strokeColor=none;spacingTop=-3;spacingBottom=-3;spacingLeft=-3;spacingRight=-3;points=[];labelBackgroundColor=none;rounded=0;html=1;whiteSpace=wrap;container=0;" parent="1" vertex="1">
          <mxGeometry x="796" y="227" width="152" height="53" as="geometry" />
        </mxCell>
        <mxCell id="Zcm5tQwCMB2YyKj0-IPv-56" value="" style="group" parent="1" vertex="1" connectable="0">
          <mxGeometry x="96" y="707.11" width="210" height="131.89" as="geometry" />
        </mxCell>
        <mxCell id="Zcm5tQwCMB2YyKj0-IPv-29" value="" style="shape=image;verticalLabelPosition=bottom;verticalAlign=top;imageAspect=0;aspect=fixed;image=data:image/svg+xml,PHN2ZyB4bWxucz0iaHR0cDovL3d3dy53My5vcmcvMjAwMC9zdmciIHdpZHRoPSIzMiIgaGVpZ2h0PSIzMiIgdmlld0JveD0iMCAwIDMyIDMyIiBmaWxsPSJub25lIj4mI3hhOzxwYXRoIGQ9Ik0wIDE2QzAgNy4xNjM0NCA3LjE2MzQ0IDAgMTYgMFYwQzI0LjgzNjYgMCAzMiA3LjE2MzQ0IDMyIDE2VjE2QzMyIDI0LjgzNjYgMjQuODM2NiAzMiAxNiAzMlYzMkM3LjE2MzQ0IDMyIDAgMjQuODM2NiAwIDE2VjE2WiIgZmlsbD0iIzUyODJGRiIvPiYjeGE7PHBhdGggZD0iTTI0IDE1VjEzSDIyVjExQzIyIDEwLjQgMjEuNiAxMCAyMSAxMEgxOVY4SDE3VjEwSDE1VjhIMTNWMTBIMTFDMTAuNCAxMCAxMCAxMC40IDEwIDExVjEzSDhWMTVIMTBWMTdIOFYxOUgxMFYyMUMxMCAyMS42IDEwLjQgMjIgMTEgMjJIMTNWMjRIMTVWMjJIMTdWMjRIMTlWMjJIMjFDMjEuNiAyMiAyMiAyMS42IDIyIDIxVjE5SDI0VjE3SDIyVjE1SDI0Wk0xOSAxOUgxM1YxM0gxOVYxOVoiIGZpbGw9IndoaXRlIi8+JiN4YTs8L3N2Zz4=;container=0;" parent="Zcm5tQwCMB2YyKj0-IPv-56" vertex="1">
          <mxGeometry x="25.30181818181818" y="83.95152120260263" width="14.984345945125423" height="14.984345945125423" as="geometry" />
        </mxCell>
        <mxCell id="Zcm5tQwCMB2YyKj0-IPv-20" value="&lt;div style=&quot;font-size: 1px&quot;&gt;&lt;font style=&quot;font-size:22.58px;font-family:Arial;color:#000000;direction:ltr;letter-spacing:0px;line-height:120%;opacity:1&quot;&gt;VM 1&lt;br&gt;&lt;/font&gt;&lt;/div&gt;" style="verticalAlign=middle;align=center;overflow=width;vsdxID=7;fillColor=none;gradientColor=none;shape=stencil(nZBLDoAgDERP0z3SIyjew0SURgSD+Lu9kMZoXLhwN9O+tukAlrNpJg1SzDH4QW/URgNYgZTkjA4UkwJUgGXng+6DX1zLfmoymdXo17xh5zmRJ6Q42BWCfc2oJfdAr+Yv+AP9Cb7OJ3H/2JG1HNGz/84klThPVCc=);strokeColor=none;points=[];labelBackgroundColor=none;rounded=0;html=1;whiteSpace=wrap;container=0;" parent="Zcm5tQwCMB2YyKj0-IPv-56" vertex="1">
          <mxGeometry x="5.663636363636351" y="27.727769052426883" width="61.224545454545456" height="45.26536609079349" as="geometry" />
        </mxCell>
        <mxCell id="Zcm5tQwCMB2YyKj0-IPv-18" style="vsdxID=6;fillColor=none;gradientColor=none;shape=stencil(vVNdD4IgFP01POIQms1nq//BEpVF4q6U9u/DoFJxPdjm2/04cO65cBDL2oo3AlHSGtAX0cncVIgdEKWyrgRIYyPEjohlhQZRgr7VucsbPiCH6Krvww29O0eGE5Q8XJaSaPcqnByWw9k2wWNZRFMHhzc+SlwhQHhATDxBj3kvWwzacCN1PSFXHEqBLRcuFC8nrbYTognKfjol65GSNIn28SL5SjGf2efL2UBMwO1nWykl3M1mzxJ8ib/eZHkrG8j47RMbfA1WSKWcP8f9uSFtyZmZHZ8=);strokeColor=#5282ff;spacingTop=-3;spacingBottom=-3;spacingLeft=-3;spacingRight=-3;points=[];labelBackgroundColor=none;rounded=0;html=1;whiteSpace=wrap;container=0;" parent="Zcm5tQwCMB2YyKj0-IPv-56" vertex="1">
          <mxGeometry width="210" height="131.88999999999996" as="geometry" />
        </mxCell>
        <mxCell id="8OyU6pPh-ruzY7AUVKWd-76" style="vsdxID=5;fillColor=none;gradientColor=none;shape=stencil(vVPLEoIgFP0aljgEVuPa6j+YRGUica6U9vdhUKk4LWzG3X0cOPdcOIilTclrgShpDOiLaGVmSsQOiFJZlQKksRFiR8TSXIMoQN+qzOU175F9dNX3/obOnSP9CUoeLktIFL8KJ4flcLZN8NhtRJiDwxsf7VwhQHjAhniCDvNONhi04UbqakSuOBQCWy6cK16MWk0rRB2U/XRKVgMlSRwl+1nyhWI+s0+Xs4KYgNvPtlBKuJvVniX4En+9yfxWVpDx2yc2+Bosl0o5fw77U0PakjMzOz4B);strokeColor=#ff5958;spacingTop=-3;spacingBottom=-3;spacingLeft=-3;spacingRight=-3;points=[];labelBackgroundColor=none;rounded=0;html=1;whiteSpace=wrap;container=0;" parent="1" vertex="1">
          <mxGeometry x="396" y="725" width="130" height="105.5" as="geometry" />
        </mxCell>
        <mxCell id="8OyU6pPh-ruzY7AUVKWd-77" value="&lt;div style=&quot;font-size: 1px&quot;&gt;&lt;font style=&quot;font-size:22.58px;font-family:Arial;color:#000000;direction:ltr;letter-spacing:0px;line-height:120%;opacity:1&quot;&gt;PosrgreSQL&lt;br&gt;&lt;/font&gt;&lt;/div&gt;&lt;div style=&quot;font-size: 1px&quot;&gt;&lt;font style=&quot;font-size:22.58px;font-family:Arial;color:#000000;direction:ltr;letter-spacing:0px;line-height:120%;opacity:1&quot;&gt;(replica)&lt;/font&gt;&lt;/div&gt;" style="verticalAlign=bottom;align=center;overflow=width;vsdxID=6;fillColor=none;gradientColor=none;strokeColor=none;spacingTop=-3;spacingBottom=-3;spacingLeft=-3;spacingRight=-3;points=[];labelBackgroundColor=none;rounded=0;html=1;whiteSpace=wrap;container=0;" parent="1" vertex="1">
          <mxGeometry x="396" y="770" width="130" height="53.21" as="geometry" />
        </mxCell>
        <mxCell id="8OyU6pPh-ruzY7AUVKWd-78" value="" style="shape=image;verticalLabelPosition=bottom;verticalAlign=top;imageAspect=0;aspect=fixed;image=data:image/svg+xml,PHN2ZyB4bWxucz0iaHR0cDovL3d3dy53My5vcmcvMjAwMC9zdmciIHdpZHRoPSIzMiIgaGVpZ2h0PSIzMiIgdmlld0JveD0iMCAwIDMyIDMyIiBmaWxsPSJub25lIj4mI3hhOzxwYXRoIGQ9Ik0wIDE2QzAgNy4xNjM0NCA3LjE2MzQ0IDAgMTYgMFYwQzI0LjgzNjYgMCAzMiA3LjE2MzQ0IDMyIDE2VjE2QzMyIDI0LjgzNjYgMjQuODM2NiAzMiAxNiAzMlYzMkM3LjE2MzQ0IDMyIDAgMjQuODM2NiAwIDE2VjE2WiIgZmlsbD0iIzUyODJGRiIvPiYjeGE7PHBhdGggZmlsbC1ydWxlPSJldmVub2RkIiBjbGlwLXJ1bGU9ImV2ZW5vZGQiIGQ9Ik0xMyA4SDE4QzIxLjMgOCAyNCAxMC43IDI0IDE0VjI0SDIwVjIwSDIyVjE5SDE4LjZDMTUuNSAxOSAxMyAxNi41IDEzIDEzLjRWOFpNMTkgMTdIMjFWMTVIMTlWMTdaTTEyIDkuMDk5OThWMTMuNEMxMiAxNi44IDE0LjYgMTkuNyAxOCAyMC4xVjIwLjZDMTggMjIgMTUuOCAyMy4xIDEzIDIzLjFDMTAuMiAyMy4xIDggMjIgOCAyMC42VjExLjZDOCAxMC4zIDkuNyA5LjI5OTk4IDEyIDkuMDk5OThaIiBmaWxsPSJ3aGl0ZSIvPiYjeGE7PC9zdmc+;container=0;" parent="1" vertex="1">
          <mxGeometry x="440.5" y="729" width="36.26923076923077" height="36.26923076923077" as="geometry" />
        </mxCell>
        <mxCell id="8OyU6pPh-ruzY7AUVKWd-79" value="" style="group" parent="1" vertex="1" connectable="0">
          <mxGeometry x="326" y="708" width="210" height="131.89" as="geometry" />
        </mxCell>
        <mxCell id="8OyU6pPh-ruzY7AUVKWd-80" style="vsdxID=6;fillColor=none;gradientColor=none;shape=stencil(vVNdD4IgFP01POIQms1nq//BEpVF4q6U9u/DoFJxPdjm2/04cO65cBDL2oo3AlHSGtAX0cncVIgdEKWyrgRIYyPEjohlhQZRgr7VucsbPiCH6Krvww29O0eGE5Q8XJaSaPcqnByWw9k2wWNZRFMHhzc+SlwhQHhATDxBj3kvWwzacCN1PSFXHEqBLRcuFC8nrbYTognKfjol65GSNIn28SL5SjGf2efL2UBMwO1nWykl3M1mzxJ8ib/eZHkrG8j47RMbfA1WSKWcP8f9uSFtyZmZHZ8=);strokeColor=#5282ff;spacingTop=-3;spacingBottom=-3;spacingLeft=-3;spacingRight=-3;points=[];labelBackgroundColor=none;rounded=0;html=1;whiteSpace=wrap;container=0;" parent="8OyU6pPh-ruzY7AUVKWd-79" vertex="1">
          <mxGeometry width="210" height="131.88999999999996" as="geometry" />
        </mxCell>
        <mxCell id="8OyU6pPh-ruzY7AUVKWd-81" value="" style="shape=image;verticalLabelPosition=bottom;verticalAlign=top;imageAspect=0;aspect=fixed;image=data:image/svg+xml,PHN2ZyB4bWxucz0iaHR0cDovL3d3dy53My5vcmcvMjAwMC9zdmciIHdpZHRoPSIzMiIgaGVpZ2h0PSIzMiIgdmlld0JveD0iMCAwIDMyIDMyIiBmaWxsPSJub25lIj4mI3hhOzxwYXRoIGQ9Ik0wIDE2QzAgNy4xNjM0NCA3LjE2MzQ0IDAgMTYgMFYwQzI0LjgzNjYgMCAzMiA3LjE2MzQ0IDMyIDE2VjE2QzMyIDI0LjgzNjYgMjQuODM2NiAzMiAxNiAzMlYzMkM3LjE2MzQ0IDMyIDAgMjQuODM2NiAwIDE2VjE2WiIgZmlsbD0iIzUyODJGRiIvPiYjeGE7PHBhdGggZD0iTTI0IDE1VjEzSDIyVjExQzIyIDEwLjQgMjEuNiAxMCAyMSAxMEgxOVY4SDE3VjEwSDE1VjhIMTNWMTBIMTFDMTAuNCAxMCAxMCAxMC40IDEwIDExVjEzSDhWMTVIMTBWMTdIOFYxOUgxMFYyMUMxMCAyMS42IDEwLjQgMjIgMTEgMjJIMTNWMjRIMTVWMjJIMTdWMjRIMTlWMjJIMjFDMjEuNiAyMiAyMiAyMS42IDIyIDIxVjE5SDI0VjE3SDIyVjE1SDI0Wk0xOSAxOUgxM1YxM0gxOVYxOVoiIGZpbGw9IndoaXRlIi8+JiN4YTs8L3N2Zz4=;container=0;" parent="8OyU6pPh-ruzY7AUVKWd-79" vertex="1">
          <mxGeometry x="25.30181818181818" y="83.95152120260263" width="14.984345945125423" height="14.984345945125423" as="geometry" />
        </mxCell>
        <mxCell id="8OyU6pPh-ruzY7AUVKWd-82" value="&lt;div style=&quot;font-size: 1px&quot;&gt;&lt;font style=&quot;font-size:22.58px;font-family:Arial;color:#000000;direction:ltr;letter-spacing:0px;line-height:120%;opacity:1&quot;&gt;VM 2&lt;br&gt;&lt;/font&gt;&lt;/div&gt;" style="verticalAlign=middle;align=center;overflow=width;vsdxID=7;fillColor=none;gradientColor=none;shape=stencil(nZBLDoAgDERP0z3SIyjew0SURgSD+Lu9kMZoXLhwN9O+tukAlrNpJg1SzDH4QW/URgNYgZTkjA4UkwJUgGXng+6DX1zLfmoymdXo17xh5zmRJ6Q42BWCfc2oJfdAr+Yv+AP9Cb7OJ3H/2JG1HNGz/84klThPVCc=);strokeColor=none;points=[];labelBackgroundColor=none;rounded=0;html=1;whiteSpace=wrap;container=0;" parent="8OyU6pPh-ruzY7AUVKWd-79" vertex="1">
          <mxGeometry x="5.663636363636351" y="27.727769052426883" width="61.224545454545456" height="45.26536609079349" as="geometry" />
        </mxCell>
        <mxCell id="8OyU6pPh-ruzY7AUVKWd-83" style="vsdxID=5;fillColor=none;gradientColor=none;shape=stencil(vVPLEoIgFP0aljgEVuPa6j+YRGUica6U9vdhUKk4LWzG3X0cOPdcOIilTclrgShpDOiLaGVmSsQOiFJZlQKksRFiR8TSXIMoQN+qzOU175F9dNX3/obOnSP9CUoeLktIFL8KJ4flcLZN8NhtRJiDwxsf7VwhQHjAhniCDvNONhi04UbqakSuOBQCWy6cK16MWk0rRB2U/XRKVgMlSRwl+1nyhWI+s0+Xs4KYgNvPtlBKuJvVniX4En+9yfxWVpDx2yc2+Bosl0o5fw77U0PakjMzOz4B);strokeColor=#ff5958;spacingTop=-3;spacingBottom=-3;spacingLeft=-3;spacingRight=-3;points=[];labelBackgroundColor=none;rounded=0;html=1;whiteSpace=wrap;container=0;" parent="1" vertex="1">
          <mxGeometry x="626" y="725" width="130" height="105.5" as="geometry" />
        </mxCell>
        <mxCell id="8OyU6pPh-ruzY7AUVKWd-84" value="&lt;div style=&quot;font-size: 1px&quot;&gt;&lt;font style=&quot;font-size:22.58px;font-family:Arial;color:#000000;direction:ltr;letter-spacing:0px;line-height:120%;opacity:1&quot;&gt;PosrgreSQL&lt;br&gt;&lt;/font&gt;&lt;/div&gt;&lt;div style=&quot;font-size: 1px&quot;&gt;&lt;font style=&quot;font-size:22.58px;font-family:Arial;color:#000000;direction:ltr;letter-spacing:0px;line-height:120%;opacity:1&quot;&gt;(master)&lt;/font&gt;&lt;/div&gt;" style="verticalAlign=bottom;align=center;overflow=width;vsdxID=6;fillColor=none;gradientColor=none;strokeColor=none;spacingTop=-3;spacingBottom=-3;spacingLeft=-3;spacingRight=-3;points=[];labelBackgroundColor=none;rounded=0;html=1;whiteSpace=wrap;container=0;" parent="1" vertex="1">
          <mxGeometry x="626" y="770" width="130" height="53.21" as="geometry" />
        </mxCell>
        <mxCell id="8OyU6pPh-ruzY7AUVKWd-85" value="" style="shape=image;verticalLabelPosition=bottom;verticalAlign=top;imageAspect=0;aspect=fixed;image=data:image/svg+xml,PHN2ZyB4bWxucz0iaHR0cDovL3d3dy53My5vcmcvMjAwMC9zdmciIHdpZHRoPSIzMiIgaGVpZ2h0PSIzMiIgdmlld0JveD0iMCAwIDMyIDMyIiBmaWxsPSJub25lIj4mI3hhOzxwYXRoIGQ9Ik0wIDE2QzAgNy4xNjM0NCA3LjE2MzQ0IDAgMTYgMFYwQzI0LjgzNjYgMCAzMiA3LjE2MzQ0IDMyIDE2VjE2QzMyIDI0LjgzNjYgMjQuODM2NiAzMiAxNiAzMlYzMkM3LjE2MzQ0IDMyIDAgMjQuODM2NiAwIDE2VjE2WiIgZmlsbD0iIzUyODJGRiIvPiYjeGE7PHBhdGggZmlsbC1ydWxlPSJldmVub2RkIiBjbGlwLXJ1bGU9ImV2ZW5vZGQiIGQ9Ik0xMyA4SDE4QzIxLjMgOCAyNCAxMC43IDI0IDE0VjI0SDIwVjIwSDIyVjE5SDE4LjZDMTUuNSAxOSAxMyAxNi41IDEzIDEzLjRWOFpNMTkgMTdIMjFWMTVIMTlWMTdaTTEyIDkuMDk5OThWMTMuNEMxMiAxNi44IDE0LjYgMTkuNyAxOCAyMC4xVjIwLjZDMTggMjIgMTUuOCAyMy4xIDEzIDIzLjFDMTAuMiAyMy4xIDggMjIgOCAyMC42VjExLjZDOCAxMC4zIDkuNyA5LjI5OTk4IDEyIDkuMDk5OThaIiBmaWxsPSJ3aGl0ZSIvPiYjeGE7PC9zdmc+;container=0;" parent="1" vertex="1">
          <mxGeometry x="670.5" y="729" width="36.26923076923077" height="36.26923076923077" as="geometry" />
        </mxCell>
        <mxCell id="8OyU6pPh-ruzY7AUVKWd-86" value="" style="group" parent="1" vertex="1" connectable="0">
          <mxGeometry x="556" y="709" width="210" height="130" as="geometry" />
        </mxCell>
        <mxCell id="8OyU6pPh-ruzY7AUVKWd-88" value="" style="shape=image;verticalLabelPosition=bottom;verticalAlign=top;imageAspect=0;aspect=fixed;image=data:image/svg+xml,PHN2ZyB4bWxucz0iaHR0cDovL3d3dy53My5vcmcvMjAwMC9zdmciIHdpZHRoPSIzMiIgaGVpZ2h0PSIzMiIgdmlld0JveD0iMCAwIDMyIDMyIiBmaWxsPSJub25lIj4mI3hhOzxwYXRoIGQ9Ik0wIDE2QzAgNy4xNjM0NCA3LjE2MzQ0IDAgMTYgMFYwQzI0LjgzNjYgMCAzMiA3LjE2MzQ0IDMyIDE2VjE2QzMyIDI0LjgzNjYgMjQuODM2NiAzMiAxNiAzMlYzMkM3LjE2MzQ0IDMyIDAgMjQuODM2NiAwIDE2VjE2WiIgZmlsbD0iIzUyODJGRiIvPiYjeGE7PHBhdGggZD0iTTI0IDE1VjEzSDIyVjExQzIyIDEwLjQgMjEuNiAxMCAyMSAxMEgxOVY4SDE3VjEwSDE1VjhIMTNWMTBIMTFDMTAuNCAxMCAxMCAxMC40IDEwIDExVjEzSDhWMTVIMTBWMTdIOFYxOUgxMFYyMUMxMCAyMS42IDEwLjQgMjIgMTEgMjJIMTNWMjRIMTVWMjJIMTdWMjRIMTlWMjJIMjFDMjEuNiAyMiAyMiAyMS42IDIyIDIxVjE5SDI0VjE3SDIyVjE1SDI0Wk0xOSAxOUgxM1YxM0gxOVYxOVoiIGZpbGw9IndoaXRlIi8+JiN4YTs8L3N2Zz4=;container=0;" parent="8OyU6pPh-ruzY7AUVKWd-86" vertex="1">
          <mxGeometry x="25.30181818181818" y="82.74848552838232" width="14.769618415848852" height="14.769618415848852" as="geometry" />
        </mxCell>
        <mxCell id="8OyU6pPh-ruzY7AUVKWd-89" value="&lt;div style=&quot;font-size: 1px&quot;&gt;&lt;font style=&quot;font-size:22.58px;font-family:Arial;color:#000000;direction:ltr;letter-spacing:0px;line-height:120%;opacity:1&quot;&gt;VM 3&lt;br&gt;&lt;/font&gt;&lt;/div&gt;" style="verticalAlign=middle;align=center;overflow=width;vsdxID=7;fillColor=none;gradientColor=none;shape=stencil(nZBLDoAgDERP0z3SIyjew0SURgSD+Lu9kMZoXLhwN9O+tukAlrNpJg1SzDH4QW/URgNYgZTkjA4UkwJUgGXng+6DX1zLfmoymdXo17xh5zmRJ6Q42BWCfc2oJfdAr+Yv+AP9Cb7OJ3H/2JG1HNGz/84klThPVCc=);strokeColor=none;points=[];labelBackgroundColor=none;rounded=0;html=1;whiteSpace=wrap;container=0;" parent="8OyU6pPh-ruzY7AUVKWd-86" vertex="1">
          <mxGeometry x="5.663636363636351" y="27.33042669509057" width="61.224545454545456" height="44.61670780046368" as="geometry" />
        </mxCell>
        <mxCell id="8OyU6pPh-ruzY7AUVKWd-90" value="" style="group" parent="1" vertex="1" connectable="0">
          <mxGeometry x="430" y="560" width="337.63" height="485" as="geometry" />
        </mxCell>
        <mxCell id="8OyU6pPh-ruzY7AUVKWd-91" value="&lt;font style=&quot;font-size: 22px;&quot;&gt;HAPROXY&lt;/font&gt;" style="vsdxID=6;fillColor=none;gradientColor=none;shape=stencil(vVNdD4IgFP01POIQms1nq//BEpVF4q6U9u/DoFJxPdjm2/04cO65cBDL2oo3AlHSGtAX0cncVIgdEKWyrgRIYyPEjohlhQZRgr7VucsbPiCH6Krvww29O0eGE5Q8XJaSaPcqnByWw9k2wWNZRFMHhzc+SlwhQHhATDxBj3kvWwzacCN1PSFXHEqBLRcuFC8nrbYTognKfjol65GSNIn28SL5SjGf2efL2UBMwO1nWykl3M1mzxJ8ib/eZHkrG8j47RMbfA1WSKWcP8f9uSFtyZmZHZ8=);strokeColor=#5282ff;spacingTop=-3;spacingBottom=-3;spacingLeft=-3;spacingRight=-3;points=[];labelBackgroundColor=none;rounded=0;html=1;whiteSpace=wrap;container=0;" parent="8OyU6pPh-ruzY7AUVKWd-90" vertex="1">
          <mxGeometry x="66" width="150" height="49.99999999999999" as="geometry" />
        </mxCell>
        <mxCell id="8OyU6pPh-ruzY7AUVKWd-87" style="vsdxID=6;fillColor=none;gradientColor=none;shape=stencil(vVNdD4IgFP01POIQms1nq//BEpVF4q6U9u/DoFJxPdjm2/04cO65cBDL2oo3AlHSGtAX0cncVIgdEKWyrgRIYyPEjohlhQZRgr7VucsbPiCH6Krvww29O0eGE5Q8XJaSaPcqnByWw9k2wWNZRFMHhzc+SlwhQHhATDxBj3kvWwzacCN1PSFXHEqBLRcuFC8nrbYTognKfjol65GSNIn28SL5SjGf2efL2UBMwO1nWykl3M1mzxJ8ib/eZHkrG8j47RMbfA1WSKWcP8f9uSFtyZmZHZ8=);strokeColor=#5282ff;spacingTop=-3;spacingBottom=-3;spacingLeft=-3;spacingRight=-3;points=[];labelBackgroundColor=none;rounded=0;html=1;whiteSpace=wrap;container=0;" parent="8OyU6pPh-ruzY7AUVKWd-90" vertex="1">
          <mxGeometry x="127.63" y="160" width="210" height="129.99999999999997" as="geometry" />
        </mxCell>
        <mxCell id="8OyU6pPh-ruzY7AUVKWd-94" style="edgeStyle=none;rounded=0;orthogonalLoop=1;jettySize=auto;html=1;entryX=0.509;entryY=0.021;entryDx=0;entryDy=0;entryPerimeter=0;exitX=0.195;exitY=1.025;exitDx=0;exitDy=0;exitPerimeter=0;" parent="1" edge="1" source="Zcm5tQwCMB2YyKj0-IPv-5">
          <mxGeometry relative="1" as="geometry">
            <mxPoint x="570.6679861454725" y="510" as="sourcePoint" />
            <mxPoint x="571.3499999999999" y="561.05" as="targetPoint" />
          </mxGeometry>
        </mxCell>
        <mxCell id="8OyU6pPh-ruzY7AUVKWd-95" style="edgeStyle=orthogonalEdgeStyle;rounded=0;orthogonalLoop=1;jettySize=auto;html=1;entryX=0.274;entryY=-0.022;entryDx=0;entryDy=0;entryPerimeter=0;" parent="1" source="8OyU6pPh-ruzY7AUVKWd-91" target="8OyU6pPh-ruzY7AUVKWd-76" edge="1">
          <mxGeometry relative="1" as="geometry">
            <Array as="points">
              <mxPoint x="571" y="630" />
              <mxPoint x="432" y="630" />
            </Array>
          </mxGeometry>
        </mxCell>
        <mxCell id="8OyU6pPh-ruzY7AUVKWd-96" value="read" style="edgeLabel;html=1;align=center;verticalAlign=middle;resizable=0;points=[];" parent="8OyU6pPh-ruzY7AUVKWd-95" vertex="1" connectable="0">
          <mxGeometry x="-0.2071" y="1" relative="1" as="geometry">
            <mxPoint x="1" as="offset" />
          </mxGeometry>
        </mxCell>
        <mxCell id="8OyU6pPh-ruzY7AUVKWd-97" style="rounded=0;orthogonalLoop=1;jettySize=auto;html=1;edgeStyle=orthogonalEdgeStyle;entryX=0.244;entryY=0;entryDx=0;entryDy=0;entryPerimeter=0;" parent="1" edge="1">
          <mxGeometry relative="1" as="geometry">
            <mxPoint x="571.0344827586207" y="610" as="sourcePoint" />
            <mxPoint x="657.72" y="725" as="targetPoint" />
            <Array as="points">
              <mxPoint x="571" y="630" />
              <mxPoint x="658" y="630" />
            </Array>
          </mxGeometry>
        </mxCell>
        <mxCell id="8OyU6pPh-ruzY7AUVKWd-98" value="read" style="edgeLabel;html=1;align=center;verticalAlign=middle;resizable=0;points=[];" parent="8OyU6pPh-ruzY7AUVKWd-97" vertex="1" connectable="0">
          <mxGeometry x="-0.4335" relative="1" as="geometry">
            <mxPoint as="offset" />
          </mxGeometry>
        </mxCell>
        <mxCell id="8OyU6pPh-ruzY7AUVKWd-99" style="edgeStyle=none;rounded=0;orthogonalLoop=1;jettySize=auto;html=1;entryX=-0.006;entryY=0.133;entryDx=0;entryDy=0;entryPerimeter=0;exitX=1.001;exitY=0.16;exitDx=0;exitDy=0;exitPerimeter=0;dashed=1;endArrow=classic;endFill=1;startArrow=classic;startFill=1;" parent="1" source="Zcm5tQwCMB2YyKj0-IPv-27" target="8OyU6pPh-ruzY7AUVKWd-76" edge="1">
          <mxGeometry relative="1" as="geometry" />
        </mxCell>
        <mxCell id="8OyU6pPh-ruzY7AUVKWd-100" style="edgeStyle=none;rounded=0;orthogonalLoop=1;jettySize=auto;html=1;entryX=-0.017;entryY=0.151;entryDx=0;entryDy=0;entryPerimeter=0;exitX=0.99;exitY=0.16;exitDx=0;exitDy=0;exitPerimeter=0;startArrow=classic;startFill=1;dashed=1;" parent="1" edge="1">
          <mxGeometry relative="1" as="geometry">
            <mxPoint x="524.7000000000003" y="740.8799999999999" as="sourcePoint" />
            <mxPoint x="623.7900000000004" y="739.9304999999997" as="targetPoint" />
          </mxGeometry>
        </mxCell>
        <mxCell id="8OyU6pPh-ruzY7AUVKWd-101" value="&lt;div style=&quot;font-size: 1px&quot;&gt;&lt;font style=&quot;font-size:22.58px;font-family:Arial;color:#000000;direction:ltr;letter-spacing:0px;line-height:120%;opacity:1&quot;&gt;ЦОД 2&lt;br&gt;&lt;/font&gt;&lt;/div&gt;" style="verticalAlign=bottom;align=center;overflow=width;vsdxID=5;fillColor=#e3ebff;gradientColor=none;shape=stencil(vVNBDsIgEHwNRwxCjHqu+g9iaUtEaBa09fdSwdpi9dBDb8vOwOwsGcQyW/FaIEqsA3MRjcxdhdgBUSp1JUA6XyF2RCwrDIgSzE3n4VzzjtlVV3PvXmjDPdLdoOQRTrvtavNqnAKXw9mDELkBIhDJaxrJZIy/YRLfbjFvpcVgHHfS6JGu4lAK7GVwoXg5gmwjRP3VjoMpqQcm9tPKs0z0Y6crWcBHqt0PN8tJspXFfmNKdpaBH8tYwML/VPjiE6dCKhXSOMTT+PlWiC47PgE=);strokeColor=none;spacingTop=-3;spacingBottom=-3;spacingLeft=-3;spacingRight=-3;points=[];labelBackgroundColor=none;rounded=0;html=1;whiteSpace=wrap;container=0;" parent="1" vertex="1">
          <mxGeometry x="880" y="370" width="720" height="530" as="geometry" />
        </mxCell>
        <mxCell id="8OyU6pPh-ruzY7AUVKWd-102" style="edgeStyle=orthogonalEdgeStyle;rounded=0;orthogonalLoop=1;jettySize=auto;html=1;exitX=0.509;exitY=1.08;exitDx=0;exitDy=0;exitPerimeter=0;" parent="1" source="8OyU6pPh-ruzY7AUVKWd-132" target="8OyU6pPh-ruzY7AUVKWd-107" edge="1">
          <mxGeometry relative="1" as="geometry">
            <Array as="points">
              <mxPoint x="1375" y="624" />
              <mxPoint x="1375" y="640" />
              <mxPoint x="1035" y="640" />
            </Array>
          </mxGeometry>
        </mxCell>
        <mxCell id="8OyU6pPh-ruzY7AUVKWd-103" value="read/write" style="edgeLabel;html=1;align=center;verticalAlign=middle;resizable=0;points=[];container=0;" parent="8OyU6pPh-ruzY7AUVKWd-102" vertex="1" connectable="0">
          <mxGeometry x="-0.0566" y="2" relative="1" as="geometry">
            <mxPoint as="offset" />
          </mxGeometry>
        </mxCell>
        <mxCell id="8OyU6pPh-ruzY7AUVKWd-107" style="vsdxID=5;fillColor=none;gradientColor=none;shape=stencil(vVPLEoIgFP0aljgEVuPa6j+YRGUica6U9vdhUKk4LWzG3X0cOPdcOIilTclrgShpDOiLaGVmSsQOiFJZlQKksRFiR8TSXIMoQN+qzOU175F9dNX3/obOnSP9CUoeLktIFL8KJ4flcLZN8NhtRJiDwxsf7VwhQHjAhniCDvNONhi04UbqakSuOBQCWy6cK16MWk0rRB2U/XRKVgMlSRwl+1nyhWI+s0+Xs4KYgNvPtlBKuJvVniX4En+9yfxWVpDx2yc2+Bosl0o5fw77U0PakjMzOz4B);strokeColor=#ff5958;spacingTop=-3;spacingBottom=-3;spacingLeft=-3;spacingRight=-3;points=[];labelBackgroundColor=none;rounded=0;html=1;whiteSpace=wrap;container=0;" parent="1" vertex="1">
          <mxGeometry x="970" y="733.11" width="130" height="105.5" as="geometry" />
        </mxCell>
        <mxCell id="8OyU6pPh-ruzY7AUVKWd-108" value="&lt;div style=&quot;font-size: 1px&quot;&gt;&lt;font style=&quot;font-size:22.58px;font-family:Arial;color:#000000;direction:ltr;letter-spacing:0px;line-height:120%;opacity:1&quot;&gt;PosrgreSQL&lt;br&gt;&lt;/font&gt;&lt;/div&gt;&lt;div style=&quot;font-size: 1px&quot;&gt;&lt;font style=&quot;font-size:22.58px;font-family:Arial;color:#000000;direction:ltr;letter-spacing:0px;line-height:120%;opacity:1&quot;&gt;(master)&lt;/font&gt;&lt;/div&gt;" style="verticalAlign=bottom;align=center;overflow=width;vsdxID=6;fillColor=none;gradientColor=none;strokeColor=none;spacingTop=-3;spacingBottom=-3;spacingLeft=-3;spacingRight=-3;points=[];labelBackgroundColor=none;rounded=0;html=1;whiteSpace=wrap;container=0;" parent="1" vertex="1">
          <mxGeometry x="970" y="778.11" width="130" height="53.21" as="geometry" />
        </mxCell>
        <mxCell id="8OyU6pPh-ruzY7AUVKWd-109" value="" style="shape=image;verticalLabelPosition=bottom;verticalAlign=top;imageAspect=0;aspect=fixed;image=data:image/svg+xml,PHN2ZyB4bWxucz0iaHR0cDovL3d3dy53My5vcmcvMjAwMC9zdmciIHdpZHRoPSIzMiIgaGVpZ2h0PSIzMiIgdmlld0JveD0iMCAwIDMyIDMyIiBmaWxsPSJub25lIj4mI3hhOzxwYXRoIGQ9Ik0wIDE2QzAgNy4xNjM0NCA3LjE2MzQ0IDAgMTYgMFYwQzI0LjgzNjYgMCAzMiA3LjE2MzQ0IDMyIDE2VjE2QzMyIDI0LjgzNjYgMjQuODM2NiAzMiAxNiAzMlYzMkM3LjE2MzQ0IDMyIDAgMjQuODM2NiAwIDE2VjE2WiIgZmlsbD0iIzUyODJGRiIvPiYjeGE7PHBhdGggZmlsbC1ydWxlPSJldmVub2RkIiBjbGlwLXJ1bGU9ImV2ZW5vZGQiIGQ9Ik0xMyA4SDE4QzIxLjMgOCAyNCAxMC43IDI0IDE0VjI0SDIwVjIwSDIyVjE5SDE4LjZDMTUuNSAxOSAxMyAxNi41IDEzIDEzLjRWOFpNMTkgMTdIMjFWMTVIMTlWMTdaTTEyIDkuMDk5OThWMTMuNEMxMiAxNi44IDE0LjYgMTkuNyAxOCAyMC4xVjIwLjZDMTggMjIgMTUuOCAyMy4xIDEzIDIzLjFDMTAuMiAyMy4xIDggMjIgOCAyMC42VjExLjZDOCAxMC4zIDkuNyA5LjI5OTk4IDEyIDkuMDk5OThaIiBmaWxsPSJ3aGl0ZSIvPiYjeGE7PC9zdmc+;container=0;" parent="1" vertex="1">
          <mxGeometry x="1014.5" y="737.11" width="36.26923076923077" height="36.26923076923077" as="geometry" />
        </mxCell>
        <mxCell id="8OyU6pPh-ruzY7AUVKWd-110" value="" style="group" parent="1" vertex="1" connectable="0">
          <mxGeometry x="900" y="717.11" width="210" height="131.89" as="geometry" />
        </mxCell>
        <mxCell id="8OyU6pPh-ruzY7AUVKWd-111" style="vsdxID=6;fillColor=none;gradientColor=none;shape=stencil(vVNdD4IgFP01POIQms1nq//BEpVF4q6U9u/DoFJxPdjm2/04cO65cBDL2oo3AlHSGtAX0cncVIgdEKWyrgRIYyPEjohlhQZRgr7VucsbPiCH6Krvww29O0eGE5Q8XJaSaPcqnByWw9k2wWNZRFMHhzc+SlwhQHhATDxBj3kvWwzacCN1PSFXHEqBLRcuFC8nrbYTognKfjol65GSNIn28SL5SjGf2efL2UBMwO1nWykl3M1mzxJ8ib/eZHkrG8j47RMbfA1WSKWcP8f9uSFtyZmZHZ8=);strokeColor=#5282ff;spacingTop=-3;spacingBottom=-3;spacingLeft=-3;spacingRight=-3;points=[];labelBackgroundColor=none;rounded=0;html=1;whiteSpace=wrap;container=0;" parent="8OyU6pPh-ruzY7AUVKWd-110" vertex="1">
          <mxGeometry width="210" height="131.88999999999996" as="geometry" />
        </mxCell>
        <mxCell id="8OyU6pPh-ruzY7AUVKWd-112" value="" style="shape=image;verticalLabelPosition=bottom;verticalAlign=top;imageAspect=0;aspect=fixed;image=data:image/svg+xml,PHN2ZyB4bWxucz0iaHR0cDovL3d3dy53My5vcmcvMjAwMC9zdmciIHdpZHRoPSIzMiIgaGVpZ2h0PSIzMiIgdmlld0JveD0iMCAwIDMyIDMyIiBmaWxsPSJub25lIj4mI3hhOzxwYXRoIGQ9Ik0wIDE2QzAgNy4xNjM0NCA3LjE2MzQ0IDAgMTYgMFYwQzI0LjgzNjYgMCAzMiA3LjE2MzQ0IDMyIDE2VjE2QzMyIDI0LjgzNjYgMjQuODM2NiAzMiAxNiAzMlYzMkM3LjE2MzQ0IDMyIDAgMjQuODM2NiAwIDE2VjE2WiIgZmlsbD0iIzUyODJGRiIvPiYjeGE7PHBhdGggZD0iTTI0IDE1VjEzSDIyVjExQzIyIDEwLjQgMjEuNiAxMCAyMSAxMEgxOVY4SDE3VjEwSDE1VjhIMTNWMTBIMTFDMTAuNCAxMCAxMCAxMC40IDEwIDExVjEzSDhWMTVIMTBWMTdIOFYxOUgxMFYyMUMxMCAyMS42IDEwLjQgMjIgMTEgMjJIMTNWMjRIMTVWMjJIMTdWMjRIMTlWMjJIMjFDMjEuNiAyMiAyMiAyMS42IDIyIDIxVjE5SDI0VjE3SDIyVjE1SDI0Wk0xOSAxOUgxM1YxM0gxOVYxOVoiIGZpbGw9IndoaXRlIi8+JiN4YTs8L3N2Zz4=;container=0;" parent="8OyU6pPh-ruzY7AUVKWd-110" vertex="1">
          <mxGeometry x="25.30181818181818" y="83.95152120260263" width="14.984345945125423" height="14.984345945125423" as="geometry" />
        </mxCell>
        <mxCell id="8OyU6pPh-ruzY7AUVKWd-113" value="&lt;div style=&quot;font-size: 1px&quot;&gt;&lt;font style=&quot;font-size:22.58px;font-family:Arial;color:#000000;direction:ltr;letter-spacing:0px;line-height:120%;opacity:1&quot;&gt;VM 1&lt;br&gt;&lt;/font&gt;&lt;/div&gt;" style="verticalAlign=middle;align=center;overflow=width;vsdxID=7;fillColor=none;gradientColor=none;shape=stencil(nZBLDoAgDERP0z3SIyjew0SURgSD+Lu9kMZoXLhwN9O+tukAlrNpJg1SzDH4QW/URgNYgZTkjA4UkwJUgGXng+6DX1zLfmoymdXo17xh5zmRJ6Q42BWCfc2oJfdAr+Yv+AP9Cb7OJ3H/2JG1HNGz/84klThPVCc=);strokeColor=none;points=[];labelBackgroundColor=none;rounded=0;html=1;whiteSpace=wrap;container=0;" parent="8OyU6pPh-ruzY7AUVKWd-110" vertex="1">
          <mxGeometry x="5.663636363636351" y="27.727769052426883" width="61.224545454545456" height="45.26536609079349" as="geometry" />
        </mxCell>
        <mxCell id="8OyU6pPh-ruzY7AUVKWd-118" style="vsdxID=5;fillColor=none;gradientColor=none;shape=stencil(vVPLEoIgFP0aljgEVuPa6j+YRGUica6U9vdhUKk4LWzG3X0cOPdcOIilTclrgShpDOiLaGVmSsQOiFJZlQKksRFiR8TSXIMoQN+qzOU175F9dNX3/obOnSP9CUoeLktIFL8KJ4flcLZN8NhtRJiDwxsf7VwhQHjAhniCDvNONhi04UbqakSuOBQCWy6cK16MWk0rRB2U/XRKVgMlSRwl+1nyhWI+s0+Xs4KYgNvPtlBKuJvVniX4En+9yfxWVpDx2yc2+Bosl0o5fw77U0PakjMzOz4B);strokeColor=#ff5958;spacingTop=-3;spacingBottom=-3;spacingLeft=-3;spacingRight=-3;points=[];labelBackgroundColor=none;rounded=0;html=1;whiteSpace=wrap;container=0;" parent="1" vertex="1">
          <mxGeometry x="1200" y="735" width="130" height="105.5" as="geometry" />
        </mxCell>
        <mxCell id="8OyU6pPh-ruzY7AUVKWd-119" value="&lt;div style=&quot;font-size: 1px&quot;&gt;&lt;font style=&quot;font-size:22.58px;font-family:Arial;color:#000000;direction:ltr;letter-spacing:0px;line-height:120%;opacity:1&quot;&gt;PosrgreSQL&lt;br&gt;&lt;/font&gt;&lt;/div&gt;&lt;div style=&quot;font-size: 1px&quot;&gt;&lt;font style=&quot;font-size:22.58px;font-family:Arial;color:#000000;direction:ltr;letter-spacing:0px;line-height:120%;opacity:1&quot;&gt;(replica)&lt;/font&gt;&lt;/div&gt;" style="verticalAlign=bottom;align=center;overflow=width;vsdxID=6;fillColor=none;gradientColor=none;strokeColor=none;spacingTop=-3;spacingBottom=-3;spacingLeft=-3;spacingRight=-3;points=[];labelBackgroundColor=none;rounded=0;html=1;whiteSpace=wrap;container=0;" parent="1" vertex="1">
          <mxGeometry x="1200" y="780" width="130" height="53.21" as="geometry" />
        </mxCell>
        <mxCell id="8OyU6pPh-ruzY7AUVKWd-120" value="" style="shape=image;verticalLabelPosition=bottom;verticalAlign=top;imageAspect=0;aspect=fixed;image=data:image/svg+xml,PHN2ZyB4bWxucz0iaHR0cDovL3d3dy53My5vcmcvMjAwMC9zdmciIHdpZHRoPSIzMiIgaGVpZ2h0PSIzMiIgdmlld0JveD0iMCAwIDMyIDMyIiBmaWxsPSJub25lIj4mI3hhOzxwYXRoIGQ9Ik0wIDE2QzAgNy4xNjM0NCA3LjE2MzQ0IDAgMTYgMFYwQzI0LjgzNjYgMCAzMiA3LjE2MzQ0IDMyIDE2VjE2QzMyIDI0LjgzNjYgMjQuODM2NiAzMiAxNiAzMlYzMkM3LjE2MzQ0IDMyIDAgMjQuODM2NiAwIDE2VjE2WiIgZmlsbD0iIzUyODJGRiIvPiYjeGE7PHBhdGggZmlsbC1ydWxlPSJldmVub2RkIiBjbGlwLXJ1bGU9ImV2ZW5vZGQiIGQ9Ik0xMyA4SDE4QzIxLjMgOCAyNCAxMC43IDI0IDE0VjI0SDIwVjIwSDIyVjE5SDE4LjZDMTUuNSAxOSAxMyAxNi41IDEzIDEzLjRWOFpNMTkgMTdIMjFWMTVIMTlWMTdaTTEyIDkuMDk5OThWMTMuNEMxMiAxNi44IDE0LjYgMTkuNyAxOCAyMC4xVjIwLjZDMTggMjIgMTUuOCAyMy4xIDEzIDIzLjFDMTAuMiAyMy4xIDggMjIgOCAyMC42VjExLjZDOCAxMC4zIDkuNyA5LjI5OTk4IDEyIDkuMDk5OThaIiBmaWxsPSJ3aGl0ZSIvPiYjeGE7PC9zdmc+;container=0;" parent="1" vertex="1">
          <mxGeometry x="1244.5" y="739" width="36.26923076923077" height="36.26923076923077" as="geometry" />
        </mxCell>
        <mxCell id="8OyU6pPh-ruzY7AUVKWd-121" value="" style="group" parent="1" vertex="1" connectable="0">
          <mxGeometry x="1130" y="718" width="210" height="131.89" as="geometry" />
        </mxCell>
        <mxCell id="8OyU6pPh-ruzY7AUVKWd-122" style="vsdxID=6;fillColor=none;gradientColor=none;shape=stencil(vVNdD4IgFP01POIQms1nq//BEpVF4q6U9u/DoFJxPdjm2/04cO65cBDL2oo3AlHSGtAX0cncVIgdEKWyrgRIYyPEjohlhQZRgr7VucsbPiCH6Krvww29O0eGE5Q8XJaSaPcqnByWw9k2wWNZRFMHhzc+SlwhQHhATDxBj3kvWwzacCN1PSFXHEqBLRcuFC8nrbYTognKfjol65GSNIn28SL5SjGf2efL2UBMwO1nWykl3M1mzxJ8ib/eZHkrG8j47RMbfA1WSKWcP8f9uSFtyZmZHZ8=);strokeColor=#5282ff;spacingTop=-3;spacingBottom=-3;spacingLeft=-3;spacingRight=-3;points=[];labelBackgroundColor=none;rounded=0;html=1;whiteSpace=wrap;container=0;" parent="8OyU6pPh-ruzY7AUVKWd-121" vertex="1">
          <mxGeometry width="210" height="131.88999999999996" as="geometry" />
        </mxCell>
        <mxCell id="8OyU6pPh-ruzY7AUVKWd-123" value="" style="shape=image;verticalLabelPosition=bottom;verticalAlign=top;imageAspect=0;aspect=fixed;image=data:image/svg+xml,PHN2ZyB4bWxucz0iaHR0cDovL3d3dy53My5vcmcvMjAwMC9zdmciIHdpZHRoPSIzMiIgaGVpZ2h0PSIzMiIgdmlld0JveD0iMCAwIDMyIDMyIiBmaWxsPSJub25lIj4mI3hhOzxwYXRoIGQ9Ik0wIDE2QzAgNy4xNjM0NCA3LjE2MzQ0IDAgMTYgMFYwQzI0LjgzNjYgMCAzMiA3LjE2MzQ0IDMyIDE2VjE2QzMyIDI0LjgzNjYgMjQuODM2NiAzMiAxNiAzMlYzMkM3LjE2MzQ0IDMyIDAgMjQuODM2NiAwIDE2VjE2WiIgZmlsbD0iIzUyODJGRiIvPiYjeGE7PHBhdGggZD0iTTI0IDE1VjEzSDIyVjExQzIyIDEwLjQgMjEuNiAxMCAyMSAxMEgxOVY4SDE3VjEwSDE1VjhIMTNWMTBIMTFDMTAuNCAxMCAxMCAxMC40IDEwIDExVjEzSDhWMTVIMTBWMTdIOFYxOUgxMFYyMUMxMCAyMS42IDEwLjQgMjIgMTEgMjJIMTNWMjRIMTVWMjJIMTdWMjRIMTlWMjJIMjFDMjEuNiAyMiAyMiAyMS42IDIyIDIxVjE5SDI0VjE3SDIyVjE1SDI0Wk0xOSAxOUgxM1YxM0gxOVYxOVoiIGZpbGw9IndoaXRlIi8+JiN4YTs8L3N2Zz4=;container=0;" parent="8OyU6pPh-ruzY7AUVKWd-121" vertex="1">
          <mxGeometry x="25.30181818181818" y="83.95152120260263" width="14.984345945125423" height="14.984345945125423" as="geometry" />
        </mxCell>
        <mxCell id="8OyU6pPh-ruzY7AUVKWd-124" value="&lt;div style=&quot;font-size: 1px&quot;&gt;&lt;font style=&quot;font-size:22.58px;font-family:Arial;color:#000000;direction:ltr;letter-spacing:0px;line-height:120%;opacity:1&quot;&gt;VM 2&lt;br&gt;&lt;/font&gt;&lt;/div&gt;" style="verticalAlign=middle;align=center;overflow=width;vsdxID=7;fillColor=none;gradientColor=none;shape=stencil(nZBLDoAgDERP0z3SIyjew0SURgSD+Lu9kMZoXLhwN9O+tukAlrNpJg1SzDH4QW/URgNYgZTkjA4UkwJUgGXng+6DX1zLfmoymdXo17xh5zmRJ6Q42BWCfc2oJfdAr+Yv+AP9Cb7OJ3H/2JG1HNGz/84klThPVCc=);strokeColor=none;points=[];labelBackgroundColor=none;rounded=0;html=1;whiteSpace=wrap;container=0;" parent="8OyU6pPh-ruzY7AUVKWd-121" vertex="1">
          <mxGeometry x="5.663636363636351" y="27.727769052426883" width="61.224545454545456" height="45.26536609079349" as="geometry" />
        </mxCell>
        <mxCell id="8OyU6pPh-ruzY7AUVKWd-125" style="vsdxID=5;fillColor=none;gradientColor=none;shape=stencil(vVPLEoIgFP0aljgEVuPa6j+YRGUica6U9vdhUKk4LWzG3X0cOPdcOIilTclrgShpDOiLaGVmSsQOiFJZlQKksRFiR8TSXIMoQN+qzOU175F9dNX3/obOnSP9CUoeLktIFL8KJ4flcLZN8NhtRJiDwxsf7VwhQHjAhniCDvNONhi04UbqakSuOBQCWy6cK16MWk0rRB2U/XRKVgMlSRwl+1nyhWI+s0+Xs4KYgNvPtlBKuJvVniX4En+9yfxWVpDx2yc2+Bosl0o5fw77U0PakjMzOz4B);strokeColor=#ff5958;spacingTop=-3;spacingBottom=-3;spacingLeft=-3;spacingRight=-3;points=[];labelBackgroundColor=none;rounded=0;html=1;whiteSpace=wrap;container=0;" parent="1" vertex="1">
          <mxGeometry x="1430" y="735" width="130" height="105.5" as="geometry" />
        </mxCell>
        <mxCell id="8OyU6pPh-ruzY7AUVKWd-126" value="&lt;div style=&quot;font-size: 1px&quot;&gt;&lt;font style=&quot;font-size:22.58px;font-family:Arial;color:#000000;direction:ltr;letter-spacing:0px;line-height:120%;opacity:1&quot;&gt;PosrgreSQL&lt;br&gt;&lt;/font&gt;&lt;/div&gt;&lt;div style=&quot;font-size: 1px&quot;&gt;&lt;font style=&quot;font-size:22.58px;font-family:Arial;color:#000000;direction:ltr;letter-spacing:0px;line-height:120%;opacity:1&quot;&gt;(replica)&lt;/font&gt;&lt;/div&gt;" style="verticalAlign=bottom;align=center;overflow=width;vsdxID=6;fillColor=none;gradientColor=none;strokeColor=none;spacingTop=-3;spacingBottom=-3;spacingLeft=-3;spacingRight=-3;points=[];labelBackgroundColor=none;rounded=0;html=1;whiteSpace=wrap;container=0;" parent="1" vertex="1">
          <mxGeometry x="1430" y="780" width="130" height="53.21" as="geometry" />
        </mxCell>
        <mxCell id="8OyU6pPh-ruzY7AUVKWd-127" value="" style="shape=image;verticalLabelPosition=bottom;verticalAlign=top;imageAspect=0;aspect=fixed;image=data:image/svg+xml,PHN2ZyB4bWxucz0iaHR0cDovL3d3dy53My5vcmcvMjAwMC9zdmciIHdpZHRoPSIzMiIgaGVpZ2h0PSIzMiIgdmlld0JveD0iMCAwIDMyIDMyIiBmaWxsPSJub25lIj4mI3hhOzxwYXRoIGQ9Ik0wIDE2QzAgNy4xNjM0NCA3LjE2MzQ0IDAgMTYgMFYwQzI0LjgzNjYgMCAzMiA3LjE2MzQ0IDMyIDE2VjE2QzMyIDI0LjgzNjYgMjQuODM2NiAzMiAxNiAzMlYzMkM3LjE2MzQ0IDMyIDAgMjQuODM2NiAwIDE2VjE2WiIgZmlsbD0iIzUyODJGRiIvPiYjeGE7PHBhdGggZmlsbC1ydWxlPSJldmVub2RkIiBjbGlwLXJ1bGU9ImV2ZW5vZGQiIGQ9Ik0xMyA4SDE4QzIxLjMgOCAyNCAxMC43IDI0IDE0VjI0SDIwVjIwSDIyVjE5SDE4LjZDMTUuNSAxOSAxMyAxNi41IDEzIDEzLjRWOFpNMTkgMTdIMjFWMTVIMTlWMTdaTTEyIDkuMDk5OThWMTMuNEMxMiAxNi44IDE0LjYgMTkuNyAxOCAyMC4xVjIwLjZDMTggMjIgMTUuOCAyMy4xIDEzIDIzLjFDMTAuMiAyMy4xIDggMjIgOCAyMC42VjExLjZDOCAxMC4zIDkuNyA5LjI5OTk4IDEyIDkuMDk5OThaIiBmaWxsPSJ3aGl0ZSIvPiYjeGE7PC9zdmc+;container=0;" parent="1" vertex="1">
          <mxGeometry x="1474.5" y="739" width="36.26923076923077" height="36.26923076923077" as="geometry" />
        </mxCell>
        <mxCell id="8OyU6pPh-ruzY7AUVKWd-128" value="" style="group" parent="1" vertex="1" connectable="0">
          <mxGeometry x="1360" y="719" width="210" height="130" as="geometry" />
        </mxCell>
        <mxCell id="8OyU6pPh-ruzY7AUVKWd-129" style="vsdxID=6;fillColor=none;gradientColor=none;shape=stencil(vVNdD4IgFP01POIQms1nq//BEpVF4q6U9u/DoFJxPdjm2/04cO65cBDL2oo3AlHSGtAX0cncVIgdEKWyrgRIYyPEjohlhQZRgr7VucsbPiCH6Krvww29O0eGE5Q8XJaSaPcqnByWw9k2wWNZRFMHhzc+SlwhQHhATDxBj3kvWwzacCN1PSFXHEqBLRcuFC8nrbYTognKfjol65GSNIn28SL5SjGf2efL2UBMwO1nWykl3M1mzxJ8ib/eZHkrG8j47RMbfA1WSKWcP8f9uSFtyZmZHZ8=);strokeColor=#5282ff;spacingTop=-3;spacingBottom=-3;spacingLeft=-3;spacingRight=-3;points=[];labelBackgroundColor=none;rounded=0;html=1;whiteSpace=wrap;container=0;" parent="8OyU6pPh-ruzY7AUVKWd-128" vertex="1">
          <mxGeometry width="210" height="129.99999999999997" as="geometry" />
        </mxCell>
        <mxCell id="8OyU6pPh-ruzY7AUVKWd-130" value="" style="shape=image;verticalLabelPosition=bottom;verticalAlign=top;imageAspect=0;aspect=fixed;image=data:image/svg+xml,PHN2ZyB4bWxucz0iaHR0cDovL3d3dy53My5vcmcvMjAwMC9zdmciIHdpZHRoPSIzMiIgaGVpZ2h0PSIzMiIgdmlld0JveD0iMCAwIDMyIDMyIiBmaWxsPSJub25lIj4mI3hhOzxwYXRoIGQ9Ik0wIDE2QzAgNy4xNjM0NCA3LjE2MzQ0IDAgMTYgMFYwQzI0LjgzNjYgMCAzMiA3LjE2MzQ0IDMyIDE2VjE2QzMyIDI0LjgzNjYgMjQuODM2NiAzMiAxNiAzMlYzMkM3LjE2MzQ0IDMyIDAgMjQuODM2NiAwIDE2VjE2WiIgZmlsbD0iIzUyODJGRiIvPiYjeGE7PHBhdGggZD0iTTI0IDE1VjEzSDIyVjExQzIyIDEwLjQgMjEuNiAxMCAyMSAxMEgxOVY4SDE3VjEwSDE1VjhIMTNWMTBIMTFDMTAuNCAxMCAxMCAxMC40IDEwIDExVjEzSDhWMTVIMTBWMTdIOFYxOUgxMFYyMUMxMCAyMS42IDEwLjQgMjIgMTEgMjJIMTNWMjRIMTVWMjJIMTdWMjRIMTlWMjJIMjFDMjEuNiAyMiAyMiAyMS42IDIyIDIxVjE5SDI0VjE3SDIyVjE1SDI0Wk0xOSAxOUgxM1YxM0gxOVYxOVoiIGZpbGw9IndoaXRlIi8+JiN4YTs8L3N2Zz4=;container=0;" parent="8OyU6pPh-ruzY7AUVKWd-128" vertex="1">
          <mxGeometry x="25.30181818181818" y="82.74848552838232" width="14.769618415848852" height="14.769618415848852" as="geometry" />
        </mxCell>
        <mxCell id="8OyU6pPh-ruzY7AUVKWd-131" value="&lt;div style=&quot;font-size: 1px&quot;&gt;&lt;font style=&quot;font-size:22.58px;font-family:Arial;color:#000000;direction:ltr;letter-spacing:0px;line-height:120%;opacity:1&quot;&gt;VM 3&lt;br&gt;&lt;/font&gt;&lt;/div&gt;" style="verticalAlign=middle;align=center;overflow=width;vsdxID=7;fillColor=none;gradientColor=none;shape=stencil(nZBLDoAgDERP0z3SIyjew0SURgSD+Lu9kMZoXLhwN9O+tukAlrNpJg1SzDH4QW/URgNYgZTkjA4UkwJUgGXng+6DX1zLfmoymdXo17xh5zmRJ6Q42BWCfc2oJfdAr+Yv+AP9Cb7OJ3H/2JG1HNGz/84klThPVCc=);strokeColor=none;points=[];labelBackgroundColor=none;rounded=0;html=1;whiteSpace=wrap;container=0;" parent="8OyU6pPh-ruzY7AUVKWd-128" vertex="1">
          <mxGeometry x="5.663636363636351" y="27.33042669509057" width="61.224545454545456" height="44.61670780046368" as="geometry" />
        </mxCell>
        <mxCell id="8OyU6pPh-ruzY7AUVKWd-132" value="&lt;font style=&quot;font-size: 22px;&quot;&gt;HAPROXY&lt;/font&gt;" style="vsdxID=6;fillColor=none;gradientColor=none;shape=stencil(vVNdD4IgFP01POIQms1nq//BEpVF4q6U9u/DoFJxPdjm2/04cO65cBDL2oo3AlHSGtAX0cncVIgdEKWyrgRIYyPEjohlhQZRgr7VucsbPiCH6Krvww29O0eGE5Q8XJaSaPcqnByWw9k2wWNZRFMHhzc+SlwhQHhATDxBj3kvWwzacCN1PSFXHEqBLRcuFC8nrbYTognKfjol65GSNIn28SL5SjGf2efL2UBMwO1nWykl3M1mzxJ8ib/eZHkrG8j47RMbfA1WSKWcP8f9uSFtyZmZHZ8=);strokeColor=#5282ff;spacingTop=-3;spacingBottom=-3;spacingLeft=-3;spacingRight=-3;points=[];labelBackgroundColor=none;rounded=0;html=1;whiteSpace=wrap;container=0;" parent="1" vertex="1">
          <mxGeometry x="1300" y="570" width="150" height="49.99999999999999" as="geometry" />
        </mxCell>
        <mxCell id="8OyU6pPh-ruzY7AUVKWd-133" style="edgeStyle=none;rounded=0;orthogonalLoop=1;jettySize=auto;html=1;entryX=0.509;entryY=0.021;entryDx=0;entryDy=0;entryPerimeter=0;" parent="1" edge="1">
          <mxGeometry relative="1" as="geometry">
            <mxPoint x="1374.6679861454725" y="520" as="sourcePoint" />
            <mxPoint x="1375.35" y="571.05" as="targetPoint" />
          </mxGeometry>
        </mxCell>
        <mxCell id="8OyU6pPh-ruzY7AUVKWd-134" style="edgeStyle=orthogonalEdgeStyle;rounded=0;orthogonalLoop=1;jettySize=auto;html=1;entryX=0.274;entryY=-0.022;entryDx=0;entryDy=0;entryPerimeter=0;" parent="1" source="8OyU6pPh-ruzY7AUVKWd-132" target="8OyU6pPh-ruzY7AUVKWd-118" edge="1">
          <mxGeometry relative="1" as="geometry">
            <Array as="points">
              <mxPoint x="1375" y="640" />
              <mxPoint x="1236" y="640" />
            </Array>
          </mxGeometry>
        </mxCell>
        <mxCell id="8OyU6pPh-ruzY7AUVKWd-135" value="read" style="edgeLabel;html=1;align=center;verticalAlign=middle;resizable=0;points=[];" parent="8OyU6pPh-ruzY7AUVKWd-134" vertex="1" connectable="0">
          <mxGeometry x="-0.2071" y="1" relative="1" as="geometry">
            <mxPoint x="1" as="offset" />
          </mxGeometry>
        </mxCell>
        <mxCell id="8OyU6pPh-ruzY7AUVKWd-136" style="rounded=0;orthogonalLoop=1;jettySize=auto;html=1;edgeStyle=orthogonalEdgeStyle;entryX=0.244;entryY=0;entryDx=0;entryDy=0;entryPerimeter=0;" parent="1" edge="1">
          <mxGeometry relative="1" as="geometry">
            <mxPoint x="1375.0344827586207" y="620" as="sourcePoint" />
            <mxPoint x="1461.72" y="735" as="targetPoint" />
            <Array as="points">
              <mxPoint x="1375" y="640" />
              <mxPoint x="1462" y="640" />
            </Array>
          </mxGeometry>
        </mxCell>
        <mxCell id="8OyU6pPh-ruzY7AUVKWd-137" value="read" style="edgeLabel;html=1;align=center;verticalAlign=middle;resizable=0;points=[];" parent="8OyU6pPh-ruzY7AUVKWd-136" vertex="1" connectable="0">
          <mxGeometry x="-0.4335" relative="1" as="geometry">
            <mxPoint as="offset" />
          </mxGeometry>
        </mxCell>
        <mxCell id="8OyU6pPh-ruzY7AUVKWd-138" style="edgeStyle=none;rounded=0;orthogonalLoop=1;jettySize=auto;html=1;entryX=-0.006;entryY=0.133;entryDx=0;entryDy=0;entryPerimeter=0;exitX=1.001;exitY=0.16;exitDx=0;exitDy=0;exitPerimeter=0;dashed=1;endArrow=classic;endFill=1;startArrow=classic;startFill=1;" parent="1" source="8OyU6pPh-ruzY7AUVKWd-107" target="8OyU6pPh-ruzY7AUVKWd-118" edge="1">
          <mxGeometry relative="1" as="geometry" />
        </mxCell>
        <mxCell id="8OyU6pPh-ruzY7AUVKWd-139" style="edgeStyle=none;rounded=0;orthogonalLoop=1;jettySize=auto;html=1;entryX=-0.017;entryY=0.151;entryDx=0;entryDy=0;entryPerimeter=0;exitX=0.99;exitY=0.16;exitDx=0;exitDy=0;exitPerimeter=0;startArrow=classic;startFill=1;dashed=1;" parent="1" edge="1">
          <mxGeometry relative="1" as="geometry">
            <mxPoint x="1328.7000000000003" y="750.8799999999999" as="sourcePoint" />
            <mxPoint x="1427.7900000000004" y="749.9304999999997" as="targetPoint" />
          </mxGeometry>
        </mxCell>
        <mxCell id="Zcm5tQwCMB2YyKj0-IPv-15" style="vsdxID=5;fillColor=none;gradientColor=none;shape=stencil(vVPLEoIgFP0aljgEVuPa6j+YRGUica6U9vdhUKk4LWzG3X0cOPdcOIilTclrgShpDOiLaGVmSsQOiFJZlQKksRFiR8TSXIMoQN+qzOU175F9dNX3/obOnSP9CUoeLktIFL8KJ4flcLZN8NhtRJiDwxsf7VwhQHjAhniCDvNONhi04UbqakSuOBQCWy6cK16MWk0rRB2U/XRKVgMlSRwl+1nyhWI+s0+Xs4KYgNvPtlBKuJvVniX4En+9yfxWVpDx2yc2+Bosl0o5fw77U0PakjMzOz4B);strokeColor=#ff5958;spacingTop=-3;spacingBottom=-3;spacingLeft=-3;spacingRight=-3;points=[];labelBackgroundColor=none;rounded=0;html=1;whiteSpace=wrap;container=0;" parent="1" vertex="1">
          <mxGeometry x="623.63" y="410" width="346.37" height="100" as="geometry" />
        </mxCell>
        <mxCell id="Zcm5tQwCMB2YyKj0-IPv-57" value="" style="group" parent="1" vertex="1" connectable="0">
          <mxGeometry x="350" y="396" width="1190" height="133.71" as="geometry" />
        </mxCell>
        <mxCell id="Zcm5tQwCMB2YyKj0-IPv-8" value="" style="shape=image;verticalLabelPosition=bottom;verticalAlign=top;imageAspect=0;aspect=fixed;image=data:image/svg+xml,PHN2ZyB4bWxucz0iaHR0cDovL3d3dy53My5vcmcvMjAwMC9zdmciIHdpZHRoPSIzMiIgaGVpZ2h0PSIzMiIgdmlld0JveD0iMCAwIDMyIDMyIiBmaWxsPSJub25lIj4mI3hhOzxwYXRoIGQ9Ik0wIDE2QzAgNy4xNjM0NCA3LjE2MzQ0IDAgMTYgMFYwQzI0LjgzNjYgMCAzMiA3LjE2MzQ0IDMyIDE2VjE2QzMyIDI0LjgzNjYgMjQuODM2NiAzMiAxNiAzMlYzMkM3LjE2MzQ0IDMyIDAgMjQuODM2NiAwIDE2VjE2WiIgZmlsbD0iIzUyODJGRiIvPiYjeGE7PHBhdGggZD0iTTExLjk5NSAyNEw3LjAwMDk4IDE3LjczOEw4Ljc4MTk4IDkuOTI3TDE2IDYuNDUzTDIzLjIxOCA5LjkyOEwyNC45OTkgMTcuNzM5TDIwLjAwNSAyNEgxMS45OTVaTTIwIDEzLjE5NkwxNS45OTkgMTAuODk5TDEyIDEzLjE5NlYxOC4xTDE2IDIwLjQwMUwyMCAxOC4xVjEzLjE5NlpNMTguNzggMTMuODk2SDE4Ljc4N0wxNiAxNS40OTlMMTMuMjE0IDEzLjg5NUgxMy4yMTlMMTUuOTk5IDEyLjI5OUwxOC43OCAxMy44OTZaIiBmaWxsPSJ3aGl0ZSIvPiYjeGE7PC9zdmc+;container=0;" parent="Zcm5tQwCMB2YyKj0-IPv-57" vertex="1">
          <mxGeometry x="50.46859065228557" y="86.14999999999996" width="27.69545454545455" height="27.69545454545455" as="geometry" />
        </mxCell>
        <mxCell id="Zcm5tQwCMB2YyKj0-IPv-6" value="&lt;div style=&quot;font-size: 1px&quot;&gt;&lt;font style=&quot;font-size:22.58px;font-family:Arial;color:#000000;direction:ltr;letter-spacing:0px;line-height:120%;opacity:1&quot;&gt;Kubernetes&lt;br&gt;&lt;/font&gt;&lt;/div&gt;&lt;div style=&quot;font-size: 1px&quot;&gt;&lt;font style=&quot;font-size:22.58px;font-family:Arial;color:#000000;direction:ltr;letter-spacing:0px;line-height:120%;opacity:1&quot;&gt;cluster 1&lt;/font&gt;&lt;/div&gt;" style="verticalAlign=middle;align=center;overflow=width;vsdxID=7;fillColor=none;gradientColor=none;shape=stencil(nZBLDoAgDERP0z3SIyjew0SURgSD+Lu9kMZoXLhwN9O+tukAlrNpJg1SzDH4QW/URgNYgZTkjA4UkwJUgGXng+6DX1zLfmoymdXo17xh5zmRJ6Q42BWCfc2oJfdAr+Yv+AP9Cb7OJ3H/2JG1HNGz/84klThPVCc=);strokeColor=none;points=[];labelBackgroundColor=none;rounded=0;html=1;whiteSpace=wrap;container=0;" parent="Zcm5tQwCMB2YyKj0-IPv-57" vertex="1">
          <mxGeometry x="11.123780174627631" width="133.4853620955316" height="86.13999999999999" as="geometry" />
        </mxCell>
        <mxCell id="Zcm5tQwCMB2YyKj0-IPv-5" value="" style="vsdxID=6;fillColor=none;gradientColor=none;shape=stencil(vVNdD4IgFP01POIQms1nq//BEpVF4q6U9u/DoFJxPdjm2/04cO65cBDL2oo3AlHSGtAX0cncVIgdEKWyrgRIYyPEjohlhQZRgr7VucsbPiCH6Krvww29O0eGE5Q8XJaSaPcqnByWw9k2wWNZRFMHhzc+SlwhQHhATDxBj3kvWwzacCN1PSFXHEqBLRcuFC8nrbYTognKfjol65GSNIn28SL5SjGf2efL2UBMwO1nWykl3M1mzxJ8ib/eZHkrG8j47RMbfA1WSKWcP8f9uSFtyZmZHZ8=);strokeColor=#5282ff;spacingTop=-3;spacingBottom=-3;spacingLeft=-3;spacingRight=-3;points=[];labelBackgroundColor=none;rounded=0;html=1;whiteSpace=wrap;container=0;" parent="Zcm5tQwCMB2YyKj0-IPv-57" vertex="1">
          <mxGeometry x="-16.135593220338983" width="1206.135593220339" height="133.71" as="geometry" />
        </mxCell>
        <mxCell id="hb-bejNqxqLF7_SFxWtd-1" style="edgeStyle=orthogonalEdgeStyle;rounded=0;orthogonalLoop=1;jettySize=auto;html=1;entryX=0.171;entryY=-0.024;entryDx=0;entryDy=0;entryPerimeter=0;" edge="1" parent="1" source="8OyU6pPh-ruzY7AUVKWd-91" target="8OyU6pPh-ruzY7AUVKWd-111">
          <mxGeometry relative="1" as="geometry" />
        </mxCell>
        <mxCell id="hb-bejNqxqLF7_SFxWtd-2" style="edgeStyle=orthogonalEdgeStyle;rounded=0;orthogonalLoop=1;jettySize=auto;html=1;entryX=0.656;entryY=0.011;entryDx=0;entryDy=0;entryPerimeter=0;" edge="1" parent="1" source="8OyU6pPh-ruzY7AUVKWd-132" target="8OyU6pPh-ruzY7AUVKWd-87">
          <mxGeometry relative="1" as="geometry" />
        </mxCell>
        <mxCell id="hb-bejNqxqLF7_SFxWtd-3" style="edgeStyle=orthogonalEdgeStyle;rounded=0;orthogonalLoop=1;jettySize=auto;html=1;entryX=0.533;entryY=1.053;entryDx=0;entryDy=0;entryPerimeter=0;exitX=0.543;exitY=1.023;exitDx=0;exitDy=0;exitPerimeter=0;" edge="1" parent="1" source="Zcm5tQwCMB2YyKj0-IPv-18" target="8OyU6pPh-ruzY7AUVKWd-111">
          <mxGeometry relative="1" as="geometry">
            <Array as="points">
              <mxPoint x="210" y="940" />
              <mxPoint x="1012" y="940" />
            </Array>
          </mxGeometry>
        </mxCell>
        <mxCell id="hb-bejNqxqLF7_SFxWtd-4" value="репликация" style="edgeLabel;html=1;align=center;verticalAlign=middle;resizable=0;points=[];" vertex="1" connectable="0" parent="hb-bejNqxqLF7_SFxWtd-3">
          <mxGeometry x="0.2357" y="6" relative="1" as="geometry">
            <mxPoint as="offset" />
          </mxGeometry>
        </mxCell>
      </root>
    </mxGraphModel>
  </diagram>
</mxfile>
